//// -- LEVEL 1
//// -- Schemas, Tables and References

// Creating tables
// You can define the tables with full schema names


Table Account as A {
  ID UUID [PK]
  GameID UUID
  Price FLOAT
  Description NVARCHAR(MAX)
}

Table Game as G {
  ID UUID [PK]
  Code NVARCHAR(MAX)
}

// Creating references
// You can also define relaionship separately
// > many-to-one; < one-to-many; - one-to-one; <> many-to-many
Ref: A.GameID > G.ID

Table ecommerce.merchants {
  id int
  country_code int
  merchant_name varchar
  
  "created at" varchar
  admin_id int [ref: > U.id]
  Indexes {
    (id, country_code) [pk]
  }
}



// If schema name is omitted, it will default to "public" schema.
Table users as U {
  id int [pk, increment] // auto-increment
  full_name varchar
  created_at timestamp
  country_code int
}

//----------------------------------------------//

//// -- LEVEL 2
//// -- Adding column settings

Table ecommerce.order_items {
  order_id int [ref: > ecommerce.orders.id] // inline relationship (many-to-one)
  product_id int
  quantity int [default: 1] // default value
}

Table ecommerce.orders {
  id int [pk] // primary key
  user_id int [not null, unique]
  status varchar
  created_at varchar [note: 'When order created'] // add column note
}

//----------------------------------------------//

//// -- Level 3 
//// -- Enum, Indexes

// Enum for 'products' table below
Enum ecommerce.products_status {
  out_of_stock
  in_stock
  running_low [note: 'less than 20'] // add column note
}

// Indexes: You can define a single or multi-column index 
Table ecommerce.products {
  id int [pk]
  name varchar
  merchant_id int [not null]
  price int
  status ecommerce.products_status
  created_at datetime [default: `now()`]
  
  Indexes {
    (merchant_id, status) [name:'product_status']
    id [unique]
  }
}

Table ecommerce.merchant_periods {
  id int [pk]
  merchant_id int
  country_code int
  start_date datetime
  end_date datetime
}

//composite foreign key
Ref: ecommerce.merchant_periods.(merchant_id, country_code) > ecommerce.merchants.(id, country_code)
